{"title":"WWE Superstars 2014 03 13 720p Web-DL H264-WWENerd14 -={SPARROW}","uid":9762079,"size":912941300,"categoryP":"video","categoryS":"hd___tv_shows","magnet":"?xt=urn:btih:c162398accac56ffb0039a90b989c24f2e1b6885&amp;dn=WWE+Superstars+2014+03+13+720p+Web-DL+H264-WWENerd14+-%3D%7BSPARROW%7D&amp;tr=udp%3A%2F%2Ftracker.openbittorrent.com%3A80&amp;tr=udp%3A%2F%2Fopen.demonii.com%3A1337&amp;tr=udp%3A%2F%2Ftracker.coppersurfer.tk%3A6969&amp;tr=udp%3A%2F%2Fexodus.desync.com%3A6969","seeders":1,"leechers":0,"uploader":"CenaCme","files":-1,"time":1394826019,"description":"This week on Superstars, Dolph Ziggler faces Fandango. Alberto Del Rio takes on Sin Cara. Plus relive the exciting moments of this past Monday Night's Raw featuring Daniel Bryan and his &quot;YES! Movement.&quot;\n\n\nFormat                                  : MPEG-4\nFormat profile                          : Base Media\nCodec ID                                : isom\nFile size                                : 871 MiB\nDuration                                : 42mn 44s\nOverall bit rate mode                    : Variable\nOverall bit rate                        : 2 848 Kbps\nWriting application                      : Lavf55.19.104\n\nVideo\nID                                      : 1\nFormat                                  : AVC\nFormat/Info                              : Advanced Video Codec\nFormat profile                          : &lt;a class=&quot;__cf_email__&quot; href=&quot;/cdn-cgi/l/email-protection&quot; data-cfemail=&quot;b2ffd3dbdcf2fe819c83&quot;&gt;[email&amp;#160;protected]&lt;/a&gt;&lt;script cf-hash='f9e31' type=&quot;text/javascript&quot;&gt;\n/* &lt;![CDATA[ */!function(){try{var t=&quot;currentScript&quot;in document?document.currentScript:function(){for(var t=document.getElementsByTagName(&quot;script&quot;),e=t.length;e--;)if(t[e].getAttribute(&quot;cf-hash&quot;))return t[e]}();if(t&amp;&amp;t.previousSibling){var e,r,n,i,c=t.previousSibling,a=c.getAttribute(&quot;data-cfemail&quot;);if(a){for(e=&quot;&quot;,r=parseInt(a.substr(0,2),16),n=2;a.length-n;n+=2)i=parseInt(a.substr(n,2),16)^r,e+=String.fromCharCode(i);e=document.createTextNode(e),c.parentNode.replaceChild(e,c)}}}catch(u){}}();/* ]]&gt; */&lt;/script&gt;\nFormat settings, CABAC                  : Yes\nFormat settings, ReFrames                : 3 frames\nCodec ID                                : avc1\nCodec ID/Info                            : Advanced Video Coding\nDuration                                : 42mn 44s\nBit rate mode                            : Variable\nBit rate                                : 2 744 Kbps\nMaximum bit rate                        : 3 656 Kbps\nWidth                                    : 960 pixels\nHeight                                  : 720 pixels\nDisplay aspect ratio                    : 16:9\nFrame rate mode                          : Variable\nFrame rate                              : 29.970 fps\nMinimum frame rate                      : 29.382 fps\nMaximum frame rate                      : 30.349 fps\nColor space                              : YUV\nChroma subsampling                      : 4:2:0\nBit depth                                : 8 bits\nScan type                                : Progressive\nBits/(Pixel*Frame)                      : 0.132\nStream size                              : 839 MiB (96%)\n\nAudio\nID                                      : 2\nFormat                                  : AAC\nFormat/Info                              : Advanced Audio Codec\nFormat profile                          : LC\nCodec ID                                : 40\nDuration                                : 42mn 44s\nBit rate mode                            : Constant\nBit rate                                : 93.5 Kbps\nChannel(s)                              : 2 channels\nChannel positions                        : Front: L R\nSampling rate                            : 48.0 KHz\nCompression mode                        : Lossy\nStream size                              : 28.6 MiB (3%) \n","torrent":{"xt":"urn:btih:c162398accac56ffb0039a90b989c24f2e1b6885","amp;dn":"WWE+Superstars+2014+03+13+720p+Web-DL+H264-WWENerd14+-%3D%7BSPARROW%7D","amp;tr":["udp%3A%2F%2Ftracker.openbittorrent.com%3A80","udp%3A%2F%2Fopen.demonii.com%3A1337","udp%3A%2F%2Ftracker.coppersurfer.tk%3A6969","udp%3A%2F%2Fexodus.desync.com%3A6969"],"infoHash":"c162398accac56ffb0039a90b989c24f2e1b6885","infoHashBuffer":{"type":"Buffer","data":[193,98,57,138,204,172,86,255,176,3,154,144,185,137,194,79,46,27,104,133]},"announce":[],"urlList":[]}}